<svg width="64" height="59" viewBox="0 0 64 59" fill="none" xmlns="http://www.w3.org/2000/svg">
<path fill-rule="evenodd" clip-rule="evenodd" d="M7.18998 18.1239C9.08663 13.1884 10.3007 7.94887 11.4397 2.86257C11.6812 1.76671 11.0086 0.665345 9.93256 0.484774C8.86317 0.224932 7.79748 0.924589 7.56334 1.94126C6.46371 6.87146 5.30495 11.9554 3.4836 16.6583C3.09027 17.6601 3.59788 18.8265 4.61997 19.2417C5.64128 19.6569 6.79587 19.1256 7.18998 18.1239Z" fill="#E7267A"/>
<path fill-rule="evenodd" clip-rule="evenodd" d="M25.9188 35.3744C35.0065 27.996 43.119 19.4878 52.4151 12.2887C53.2801 11.6506 53.4415 10.3875 52.7703 9.52575C52.0984 8.66397 50.8513 8.46771 49.9789 9.18498C40.6582 16.3818 32.5219 24.8878 23.4097 32.2639C22.5563 32.9829 22.4267 34.2487 23.1192 35.1124C23.8183 35.8969 25.0654 36.0934 25.9188 35.3744Z" fill="#E7267A"/>
<path fill-rule="evenodd" clip-rule="evenodd" d="M56.5068 53.6564C51.7201 53.4482 46.9334 53.2395 42.1459 53.0312C41.0546 52.9291 40.1229 53.8011 40.0722 54.9148C40.0224 56.0286 40.8773 56.9071 41.9694 57.0092C46.764 57.2182 51.5579 57.4275 56.3517 57.6364C57.4505 57.6593 58.3765 56.7872 58.4209 55.6728C58.4578 54.6377 57.6048 53.6793 56.5068 53.6564Z" fill="#E7267A"/>
</svg>
