<svg width="62" height="37" viewBox="0 0 62 37" fill="none" xmlns="http://www.w3.org/2000/svg">
<path d="M57.5853 4.36623C55.2184 2.00502 52.0682 0.588455 48.7275 0.383122C45.387 0.17779 42.0863 1.19785 39.4469 3.25134C37.0367 1.38281 34.0714 0.36823 31.0192 0.36764C27.967 0.367049 25.0015 1.38049 22.5905 3.24808C19.8408 1.09513 16.3713 0.0706076 12.8902 0.38366C9.4092 0.696711 6.17918 2.32374 3.85957 4.93256C1.53997 7.54139 0.305719 10.9353 0.408806 14.4214C0.511893 17.9074 1.94454 21.2229 4.41427 23.6906L12.8487 32.1081C12.8552 32.1144 12.8618 32.1205 12.8691 32.127C12.8765 32.1335 12.8785 32.1366 12.8832 32.1413C12.892 32.15 12.9014 32.158 12.9101 32.1667C13.0442 32.2991 13.1803 32.4281 13.3184 32.5538C13.3895 32.6188 13.4613 32.6817 13.5336 32.745C13.5923 32.796 13.6512 32.8465 13.7104 32.8964C16.1147 34.9292 19.1469 36.0747 22.2975 36.1399C25.4484 36.2052 28.5255 35.1867 31.0125 33.2551C33.6519 35.3085 36.9526 36.3287 40.2931 36.1233C43.6338 35.918 46.784 34.5014 49.1509 32.1402L57.5855 23.724C60.1543 21.1551 61.5969 17.6741 61.5969 14.0451C61.5969 10.416 60.1541 6.93522 57.5853 4.36623ZM31.0165 3.93274C33.0219 3.93146 34.9825 4.52386 36.6502 5.63495C38.3181 6.74603 39.618 8.32585 40.3856 10.1745C41.1532 12.0231 41.3538 14.0574 40.9623 16.0198C40.5707 17.9823 39.6045 19.7848 38.1858 21.1991L31.0165 28.3527L23.847 21.1991C22.4284 19.7848 21.4622 17.9823 21.0706 16.0198C20.679 14.0573 20.8797 12.023 21.6473 10.1744C22.4149 8.32575 23.7149 6.74593 25.3826 5.63487C27.0505 4.5238 29.0112 3.93142 31.0165 3.93274ZM12.4426 22.4616C12.439 21.1325 12.6996 19.8158 13.2094 18.5879C13.7191 17.3599 14.4679 16.2451 15.4124 15.3078L17.3206 13.4038C17.2282 15.307 17.536 17.2084 18.2242 18.9858C18.9124 20.7631 19.9658 22.3771 21.3166 23.724L28.3393 30.7316C26.8245 31.7903 25.0476 32.4138 23.2021 32.534C21.3568 32.6542 19.5136 32.2667 17.8737 31.4136C16.2339 30.5603 14.8602 29.2745 13.9024 27.6957C12.9447 26.1172 12.4396 24.3064 12.4422 22.461L12.4426 22.4616ZM6.94429 21.1654C5.14971 19.3752 4.09326 16.9784 3.98361 14.4487C3.87396 11.9189 4.71908 9.4401 6.35203 7.50191C7.98498 5.56371 10.287 4.30708 12.8034 3.98023C15.3198 3.65338 17.8675 4.2801 19.9433 5.73658L12.882 12.7826C11.6042 14.0508 10.5911 15.5592 9.90151 17.2206C9.21189 18.882 8.85935 20.6634 8.86431 22.4616C8.86431 22.6739 8.86927 22.8854 8.87921 23.0962L6.94429 21.1654ZM39.4516 32.5784C37.3801 32.5833 35.3576 31.9502 33.6601 30.7654L40.7173 23.724C42.0682 22.3771 43.1214 20.7631 43.8095 18.9858C44.4977 17.2084 44.8056 15.307 44.7133 13.4038L46.6215 15.3078C48.0395 16.7228 49.0049 18.5255 49.3961 20.488C49.7874 22.4504 49.5866 24.4847 48.819 26.3333C48.0516 28.182 46.7519 29.7619 45.0847 30.8736C43.4172 31.9852 41.4569 32.5784 39.4516 32.5784ZM55.0553 21.1991L53.1541 23.0962C53.1637 22.8856 53.1686 22.6741 53.169 22.4616C53.1739 20.6634 52.8213 18.882 52.1317 17.2206C51.4421 15.5592 50.4289 14.0508 49.1511 12.7826L42.0947 5.74126C44.1742 4.29734 46.7201 3.68259 49.2311 4.01803C51.7422 4.35346 54.0364 5.6148 55.662 7.55368C57.2877 9.49255 58.1269 11.9685 58.0147 14.494C57.9024 17.0194 56.8467 19.4115 55.0553 21.1991Z" fill="white"/>
</svg>
