<svg width="73" height="42" viewBox="0 0 73 42" fill="none" xmlns="http://www.w3.org/2000/svg">
<path fill-rule="evenodd" clip-rule="evenodd" d="M45.6225 10.1062L51.2269 4.5018C53.5648 2.16405 56.7354 0.850708 60.0414 0.850708C63.3476 0.850708 66.5182 2.16405 68.856 4.5018C71.1938 6.83958 72.5072 10.0102 72.5072 13.3163C72.5072 16.6224 71.1938 19.7931 68.856 22.1309L58.1696 32.8173C58.5265 31.4664 58.6864 30.0709 58.644 28.6742L67.0216 20.2965C68.8508 18.4407 69.8718 15.9369 69.8624 13.3312C69.853 10.7255 68.8137 8.2292 66.9712 6.38668C65.1286 4.54413 62.6323 3.50483 60.0267 3.49537C57.4209 3.48594 54.9173 4.5071 53.0613 6.3362L47.4569 11.9406L45.6225 10.1062ZM44.2467 41.571C42.6098 41.5738 40.9884 41.2531 39.4758 40.6274C37.9632 40.0019 36.589 39.0834 35.4323 37.9251L19.6376 22.1304C17.3053 19.7915 15.9965 16.6225 15.9989 13.3194C16.0012 10.0163 17.3144 6.84917 19.6501 4.51357C21.9858 2.17797 25.1529 0.86488 28.4562 0.862668C31.7592 0.860456 34.9282 2.16931 37.2669 4.50177L53.0616 20.2965C54.8058 22.039 55.9938 24.2598 56.4753 26.6781C56.9569 29.096 56.71 31.6027 55.7664 33.8805C54.8225 36.1583 53.2242 38.1047 51.1736 39.4739C49.123 40.8429 46.7124 41.5726 44.2467 41.571ZM37.2669 36.0912C39.1229 37.9203 41.6265 38.9414 44.2323 38.932C46.8379 38.9226 49.3342 37.8832 51.1768 36.0406C53.0193 34.1982 54.0586 31.7019 54.068 29.0963C54.0774 26.4905 53.0564 23.9866 51.2272 22.1309L35.4325 6.33616C34.5182 5.40857 33.4296 4.67106 32.2289 4.16611C31.0285 3.66117 29.74 3.39878 28.4376 3.39406C27.1351 3.38932 25.8447 3.64236 24.6406 4.13858C23.4365 4.6348 22.3424 5.36441 21.4214 6.28534C20.5005 7.20627 19.7709 8.30033 19.2747 9.50449C18.7785 10.7087 18.5254 11.9991 18.5301 13.3015C18.5349 14.6039 18.7973 15.8925 19.3022 17.093C19.8071 18.2935 20.5447 19.3822 21.4723 20.2965L37.2669 36.0912ZM25.2423 30.4868L19.6377 36.0912C17.7826 37.924 15.2776 38.9485 12.6698 38.9407C10.062 38.9329 7.56319 37.8935 5.71916 36.0495C3.87512 34.2055 2.83566 31.7067 2.82781 29.0988C2.81993 26.4909 3.84429 23.9859 5.67715 22.1309L14.0484 13.7597C14.044 13.6122 14.0411 13.4644 14.0411 13.3162C14.0403 12.0696 14.2003 10.828 14.5172 9.62227L3.8439 20.2956C1.51988 22.6363 0.218251 25.8027 0.224141 29.1011C0.230031 32.3995 1.54296 35.5612 3.87533 37.8935C6.2077 40.2259 9.36939 41.5387 12.6678 41.5444C15.9663 41.5504 19.1326 40.2488 21.4732 37.9247L27.0776 32.3203L25.2423 30.4868Z" fill="white"/>
</svg>
