<svg width="58" height="58" viewBox="0 0 58 58" fill="none" xmlns="http://www.w3.org/2000/svg">
<path fill-rule="evenodd" clip-rule="evenodd" d="M23.4572 13.1307C22.5599 13.1794 21.706 13.5331 21.0371 14.1333L20.2439 14.9265C19.978 15.1923 19.6173 15.3416 19.2413 15.3416C18.8653 15.3416 18.5047 15.1923 18.2387 14.9265L9.84353 6.52946C9.57857 6.26279 9.42983 5.90207 9.42983 5.52609C9.42983 5.1501 9.57857 4.78939 9.84353 4.52272L13.0395 1.3256C13.3063 1.06136 13.6666 0.913132 14.0421 0.913132C14.4175 0.913132 14.7778 1.06136 15.0446 1.3256L21.0371 7.32023C21.706 7.92043 22.5599 8.27413 23.4572 8.32277H34.6409C35.538 8.27328 36.3913 7.91968 37.0608 7.32023L43.0532 1.3256C43.3191 1.05974 43.6797 0.9104 44.0558 0.9104C44.4318 0.9104 44.7924 1.05974 45.0584 1.3256L48.2543 4.51899C48.5192 4.78571 48.6679 5.14648 48.6679 5.52249C48.6679 5.89853 48.5192 6.2593 48.2543 6.52599L39.8572 14.9267C39.7256 15.0584 39.5694 15.1628 39.3975 15.2341C39.2259 15.3053 39.0415 15.342 38.8554 15.342C38.6694 15.342 38.4853 15.3053 38.3134 15.2341C38.1415 15.1628 37.9853 15.0584 37.8539 14.9267L37.0605 14.1333C36.3911 13.5338 35.5377 13.1802 34.6407 13.1307H23.4572ZM12.7838 34.7116C12.8324 35.6089 13.1855 36.4628 13.7847 37.1325L14.5762 37.9241C14.8416 38.19 14.9907 38.5503 14.9907 38.9264C14.9907 39.3022 14.8416 39.6625 14.5762 39.9287L6.18019 48.3295C5.91393 48.5947 5.55348 48.7436 5.17773 48.7436C4.80199 48.7436 4.44154 48.5947 4.17527 48.3295L0.979328 45.1325C0.71512 44.8657 0.566895 44.5054 0.566895 44.1299C0.566895 43.7547 0.71512 43.3943 0.979328 43.1276L6.97171 37.1307C7.57218 36.4623 7.92578 35.6087 7.97364 34.7113V23.5215C7.92564 22.6237 7.5721 21.7694 6.97171 21.1004L0.979328 15.1058C0.71512 14.8391 0.566895 14.4788 0.566895 14.1034C0.566895 13.7279 0.71512 13.3676 0.979328 13.1009L4.17527 9.9038C4.44151 9.63855 4.80196 9.48962 5.17773 9.48962C5.5535 9.48962 5.91395 9.63855 6.18019 9.9038L14.5762 18.304C14.8416 18.57 14.9907 18.9306 14.9907 19.3064C14.9907 19.6823 14.8416 20.0428 14.5762 20.3089L13.7847 21.1007C13.1853 21.7702 12.8323 22.6243 12.7838 23.5217V34.7116ZM34.4391 45.1889C35.3361 45.1394 36.1895 44.7857 36.8587 44.1863L37.6512 43.3919C37.9177 43.1275 38.2781 42.9793 38.6533 42.9793C39.0285 42.9793 39.3886 43.1275 39.6551 43.3919L48.0562 51.7927C48.3213 52.0594 48.47 52.4203 48.47 52.7963C48.47 53.1724 48.3213 53.5332 48.0562 53.7997L44.8602 56.997C44.5937 57.2614 44.2334 57.4095 43.8582 57.4095C43.4827 57.4095 43.1226 57.2614 42.8558 56.997L36.8621 50.9993C36.1929 50.3999 35.3396 50.0465 34.4425 49.9972H23.2567C22.3595 50.0468 21.5057 50.4002 20.8358 50.9993L14.8448 56.997C14.5779 57.2614 14.2176 57.4095 13.842 57.4095C13.4665 57.4095 13.1062 57.2614 12.8393 56.997L9.64338 53.7997C9.37834 53.5332 9.22955 53.1724 9.22955 52.7963C9.22955 52.4203 9.37834 52.0594 9.64338 51.7927L18.0383 43.3924C18.3055 43.1281 18.666 42.9799 19.0417 42.9799C19.4174 42.9799 19.7779 43.1281 20.0451 43.3924L20.8348 44.1863C21.5048 44.786 22.3589 45.1394 23.2565 45.1889H34.4391ZM44.1113 21.1869C44.712 21.8571 45.0662 22.7124 45.115 23.6114V34.797C45.066 35.6954 44.7118 36.5501 44.1113 37.2195L43.3196 38.0132C43.0549 38.2797 42.9065 38.64 42.9065 39.0158C42.9065 39.3913 43.0549 39.7516 43.3196 40.0181L51.7179 48.4173C51.9842 48.6825 52.3448 48.8312 52.7203 48.8312C53.096 48.8312 53.4564 48.6825 53.7226 48.4173L56.9185 45.2184C57.1837 44.9522 57.3327 44.5916 57.3327 44.2158C57.3327 43.8401 57.1837 43.4795 56.9185 43.2132L50.9275 37.2185C50.3268 36.549 49.9723 35.6943 49.9233 34.7959L49.9249 23.6103C49.9731 22.7114 50.3268 21.8561 50.9275 21.1858L56.9185 15.1912C57.1837 14.9254 57.3327 14.5653 57.3327 14.1898C57.3327 13.8143 57.1837 13.4542 56.9185 13.1884L53.7226 9.98944C53.5909 9.85776 53.4348 9.75328 53.2629 9.68202C53.0907 9.61076 52.9066 9.57406 52.7203 9.57406C52.5342 9.57406 52.3498 9.61076 52.1779 9.68202C52.0058 9.75328 51.8496 9.85776 51.7179 9.98944L43.3196 18.3883C43.0549 18.6548 42.9065 19.0152 42.9065 19.3909C42.9065 19.7665 43.0549 20.1269 43.3196 20.3934L44.1113 21.1869Z" fill="white"/>
</svg>
