<svg width="51" height="54" viewBox="0 0 51 54" fill="none" xmlns="http://www.w3.org/2000/svg">
<path d="M28.1708 9.82639L30.1282 7.8419C33.972 3.94489 40.2296 3.84843 44.0955 7.72299C45.5603 9.1944 46.5339 11.0941 46.8792 13.1552C47.2245 15.2163 46.9242 17.3353 46.0207 19.2145C45.5873 20.1122 45.4413 21.1247 45.6029 22.1106C45.7647 23.0965 46.2261 24.0066 46.9227 24.7138C48.2038 23.412 49.2191 21.867 49.911 20.1672C50.6029 18.4674 50.9578 16.646 50.9552 14.8072C50.9525 12.9684 50.5928 11.148 49.8961 9.45021C49.1995 7.75239 48.1796 6.21037 46.895 4.91225C41.4893 -0.537496 32.7148 -0.429048 27.3242 5.03601L8.66718 23.951L7.13341 22.396C3.22447 18.4329 3.19955 11.9548 7.17745 8.06212C8.64989 6.62567 10.5258 5.68795 12.5463 5.37843C14.5668 5.0689 16.6322 5.40282 18.4575 6.33408C19.2907 6.76693 20.2374 6.92177 21.1625 6.7765C22.0876 6.63123 22.9438 6.19327 23.6088 5.52518L23.6564 5.47721C23.6712 5.4623 23.6829 5.44457 23.6909 5.42502C23.6989 5.4055 23.703 5.38455 23.703 5.3634C23.703 5.34224 23.6989 5.32129 23.6909 5.30177C23.6829 5.28225 23.6712 5.26452 23.6564 5.24959C21.0885 2.71153 17.6474 1.28592 14.0612 1.27439C10.475 1.26287 7.02506 2.66634 4.44137 5.18784C-1.12417 10.635 -1.10428 19.6932 4.36587 25.2392L23.0173 44.1491L21.036 46.1578C17.1923 50.0548 10.9344 50.1513 7.06873 46.2767C5.60389 44.8054 4.63044 42.9056 4.2851 40.8446C3.93979 38.7835 4.2399 36.6646 5.14333 34.7852C5.57676 33.8875 5.72283 32.875 5.56118 31.8893C5.39949 30.9033 4.93813 29.9931 4.24154 29.286C2.96053 30.5879 1.94507 32.1327 1.25315 33.8324C0.561232 35.5324 0.206427 37.3535 0.208998 39.1926C0.211569 41.0314 0.571465 42.8518 1.26814 44.5495C1.9648 46.2474 2.98459 47.7894 4.26922 49.0875C9.67468 54.5375 18.4495 54.4293 23.8401 48.964L42.5212 30.0237L44.0608 31.5846C47.9046 35.4816 47.9997 41.826 44.1781 45.7452C42.7269 47.2306 40.8531 48.2173 38.8202 48.5677C36.7873 48.9178 34.6973 48.6134 32.8437 47.6973C31.958 47.2576 30.9588 47.1094 29.986 47.2737C29.0132 47.4378 28.1152 47.906 27.4178 48.6128C28.7019 49.9117 30.2256 50.9413 31.9021 51.6428C33.5788 52.3443 35.3751 52.7041 37.189 52.7015C39.0027 52.6987 40.7982 52.3338 42.4727 51.6275C44.1474 50.9212 45.6683 49.8872 46.9487 48.5848C52.3242 43.1044 52.2172 34.208 46.8268 28.743L28.1708 9.82639ZM25.8025 41.3241L11.4531 26.7758L25.3847 12.6514L39.7341 27.1997L25.8025 41.3241Z" fill="white"/>
</svg>
