<svg width="39" height="38" viewBox="0 0 39 38" fill="none" xmlns="http://www.w3.org/2000/svg">
<path d="M23.9483 8.9686C19.193 8.9686 9.66764 5.1137 9.66764 0.358154H9.59723C9.59723 4.16427 11.1092 7.81449 13.8004 10.5059C16.4917 13.1972 20.1418 14.7093 23.948 14.7094C26.2316 14.7094 28.4218 15.6166 30.0367 17.2314C31.6516 18.8462 32.5588 21.0364 32.5588 23.3201C32.5593 25.6037 31.6525 27.7943 30.038 29.4093C28.4234 31.0246 26.2334 31.9321 23.9498 31.9327C21.6659 31.933 19.4756 31.0262 17.8604 29.4117C16.2453 27.7971 15.3376 25.6071 15.3372 23.3235C15.3371 21.4388 14.9659 19.5726 14.2446 17.8315C13.5233 16.0903 12.4662 14.5082 11.1335 13.1756C9.80077 11.843 8.21866 10.7859 6.47744 10.0648C4.73623 9.34362 2.87 8.97248 0.985352 8.97255V9.0424C5.73999 9.0424 9.59492 18.5637 9.59669 23.3199H9.5958C9.59578 26.1584 10.4374 28.9331 12.0143 31.2931C13.5912 33.6532 15.8325 35.4927 18.4548 36.5789C21.0772 37.6653 23.9627 37.9496 26.7467 37.3958C29.5305 36.8422 32.0877 35.4755 34.0949 33.4686C36.1019 31.4616 37.4689 28.9045 38.0229 26.1206C38.5768 23.3368 38.2927 20.4512 37.2066 17.8288C36.1206 15.2064 34.2813 12.9649 31.9214 11.3878C29.5613 9.8107 26.7867 8.96882 23.9483 8.9686Z" fill="white"/>
</svg>
