<svg width="42" height="38" viewBox="0 0 42 38" fill="none" xmlns="http://www.w3.org/2000/svg">
<path d="M38.0625 0.625H27.5625C25.3887 0.625 23.625 2.38867 23.625 4.5625V15.0625C23.625 17.2363 25.3887 19 27.5625 19H34.125V24.25C34.125 27.1457 31.7707 29.5 28.875 29.5H28.2188C27.1277 29.5 26.25 30.3777 26.25 31.4688V35.4062C26.25 36.4973 27.1277 37.375 28.2188 37.375H28.875C36.1266 37.375 42 31.5016 42 24.25V4.5625C42 2.38867 40.2363 0.625 38.0625 0.625ZM14.4375 0.625H3.9375C1.76367 0.625 0 2.38867 0 4.5625V15.0625C0 17.2363 1.76367 19 3.9375 19H10.5V24.25C10.5 27.1457 8.1457 29.5 5.25 29.5H4.59375C3.50273 29.5 2.625 30.3777 2.625 31.4688V35.4062C2.625 36.4973 3.50273 37.375 4.59375 37.375H5.25C12.5016 37.375 18.375 31.5016 18.375 24.25V4.5625C18.375 2.38867 16.6113 0.625 14.4375 0.625Z" fill="#E7267A"/>
</svg>
