<svg width="108" height="16" viewBox="0 0 108 16" fill="none" xmlns="http://www.w3.org/2000/svg">
<g clip-path="url(#clip0_1_322)">
<path d="M7.20268 1.38335L5.38879 5.06112L1.33046 5.65279C0.602682 5.75835 0.311016 6.65557 0.838794 7.16946L3.7749 10.0306L3.08046 14.0722C2.95546 14.8028 3.7249 15.35 4.36935 15.0083L7.99991 13.1L11.6305 15.0083C12.2749 15.3472 13.0443 14.8028 12.9193 14.0722L12.2249 10.0306L15.161 7.16946C15.6888 6.65557 15.3971 5.75835 14.6693 5.65279L10.611 5.06112L8.79713 1.38335C8.47213 0.727791 7.53046 0.719458 7.20268 1.38335Z" fill="#FF9900"/>
</g>
<g clip-path="url(#clip1_1_322)">
<path d="M30.2027 1.38335L28.3888 5.06112L24.3305 5.65279C23.6027 5.75835 23.311 6.65557 23.8388 7.16946L26.7749 10.0306L26.0805 14.0722C25.9555 14.8028 26.7249 15.35 27.3693 15.0083L30.9999 13.1L34.6305 15.0083C35.2749 15.3472 36.0443 14.8028 35.9193 14.0722L35.2249 10.0306L38.161 7.16946C38.6888 6.65557 38.3971 5.75835 37.6693 5.65279L33.611 5.06112L31.7971 1.38335C31.4721 0.727791 30.5305 0.719458 30.2027 1.38335Z" fill="#FF9900"/>
</g>
<g clip-path="url(#clip2_1_322)">
<path d="M53.2027 1.38335L51.3888 5.06112L47.3305 5.65279C46.6027 5.75835 46.311 6.65557 46.8388 7.16946L49.7749 10.0306L49.0805 14.0722C48.9555 14.8028 49.7249 15.35 50.3693 15.0083L53.9999 13.1L57.6305 15.0083C58.2749 15.3472 59.0443 14.8028 58.9193 14.0722L58.2249 10.0306L61.161 7.16946C61.6888 6.65557 61.3971 5.75835 60.6693 5.65279L56.611 5.06112L54.7971 1.38335C54.4721 0.727791 53.5305 0.719458 53.2027 1.38335Z" fill="#FF9900"/>
</g>
<g clip-path="url(#clip3_1_322)">
<path d="M76.2027 1.38335L74.3888 5.06112L70.3305 5.65279C69.6027 5.75835 69.311 6.65557 69.8388 7.16946L72.7749 10.0306L72.0805 14.0722C71.9555 14.8028 72.7249 15.35 73.3693 15.0083L76.9999 13.1L80.6305 15.0083C81.2749 15.3472 82.0443 14.8028 81.9193 14.0722L81.2249 10.0306L84.161 7.16946C84.6888 6.65557 84.3971 5.75835 83.6693 5.65279L79.611 5.06112L77.7971 1.38335C77.4721 0.727791 76.5305 0.719458 76.2027 1.38335Z" fill="#FF9900"/>
</g>
<g clip-path="url(#clip4_1_322)">
<path d="M107.181 5.47792L102.811 4.8418L100.859 0.889857C100.683 0.536723 100.341 0.358215 99.9986 0.358215C99.6583 0.358215 99.3183 0.534335 99.1422 0.889857L97.1891 4.8415L92.8195 5.47702C92.036 5.59045 91.7219 6.55433 92.29 7.10657L95.4509 10.1812L94.7028 14.5239C94.5966 15.1442 95.0918 15.6418 95.6464 15.6418C95.7936 15.6418 95.9449 15.6069 96.0903 15.5299L99.9992 13.4797L103.908 15.5305C104.053 15.6066 104.204 15.6412 104.351 15.6412C104.906 15.6412 105.402 15.1454 105.296 14.5248L104.548 10.1818L107.71 7.10777C108.278 6.55553 107.964 5.59135 107.181 5.47792ZM103.547 9.15553L103.006 9.6815L103.134 10.4242L103.716 13.8108L100.668 12.2111L99.9995 11.8606L100 2.39225L101.524 5.47553L101.857 6.15105L102.604 6.25971L106.014 6.75613L103.547 9.15553Z" fill="#FF9900"/>
</g>
<defs>
<clipPath id="clip0_1_322">
<rect width="16" height="16" fill="white"/>
</clipPath>
<clipPath id="clip1_1_322">
<rect width="16" height="16" fill="white" transform="translate(23)"/>
</clipPath>
<clipPath id="clip2_1_322">
<rect width="16" height="16" fill="white" transform="translate(46)"/>
</clipPath>
<clipPath id="clip3_1_322">
<rect width="16" height="16" fill="white" transform="translate(69)"/>
</clipPath>
<clipPath id="clip4_1_322">
<rect width="16" height="16" fill="white" transform="translate(92)"/>
</clipPath>
</defs>
</svg>
